PathFileType	4	(X/Y/Z)	Kaydara																																																																																																																									
DataRate	CameraRate	NumFrames	NumMarkers	Units	OrigDataRate	OrigDataStartFrame	OrigNumFrames																																																																																																																					
30	30	5	41	mm	30	47	372																																																																																																																					
Frame#	Time	NABA_LFHD			NABA_RFHD			NABA_LBHD			NABA_RBHD			NABA_LFTShould			NABA_RFTShould			NABA_LRRShould			NABA_RRRShould			NABA_T10			NABA_STRN			NABA_TRUN			NABA_LSHO			NABA_LUPA			NABA_LELB			NABA_LFRM			NABA_LWRA			NABA_LWRB			NABA_LFIN			NABA_RSHO			NABA_RUPA			NABA_RELB			NABA_RFRM			NABA_RWRA			NABA_RWRB			NABA_RFIN			NABA_LFWT			NABA_RFWT			NABA_LBWT			NABA_RBWT			NABA_LTHI			NABA_LKNE			NABA_LSHN			NABA_LANK			NABA_LHEE			NABA_LTOE			NABA_RTHI			NABA_RKNE			NABA_RSHN			NABA_RANK			NABA_RHEE			NABA_RTOE		
		X1	Y1	Z1	X2	Y2	Z2	X3	Y3	Z3	X4	Y4	Z4	X5	Y5	Z5	X6	Y6	Z6	X7	Y7	Z7	X8	Y8	Z8	X9	Y9	Z9	X10	Y10	Z10	X11	Y11	Z11	X12	Y12	Z12	X13	Y13	Z13	X14	Y14	Z14	X15	Y15	Z15	X16	Y16	Z16	X17	Y17	Z17	X18	Y18	Z18	X19	Y19	Z19	X20	Y20	Z20	X21	Y21	Z21	X22	Y22	Z22	X23	Y23	Z23	X24	Y24	Z24	X25	Y25	Z25	X26	Y26	Z26	X27	Y27	Z27	X28	Y28	Z28	X29	Y29	Z29	X30	Y30	Z30	X31	Y31	Z31	X32	Y32	Z32	X33	Y33	Z33	X34	Y34	Z34	X35	Y35	Z35	X36	Y36	Z36	X37	Y37	Z37	X38	Y38	Z38	X39	Y39	Z39	X40	Y40	Z40	X41	Y41	Z41
																																																																																																																												
47	1.543	245.41067	1534.71786	-1826.483	74.73549	1503.25897	-1819.52621	259.02811	1587.42554	-1940.06821	42.05644	1549.39331	-1905.00549	236.90653	1339.34372	-1963.86139	101.12449	1334.64691	-1963.24432	235.49404	1391.29547	-2082.7002	85.87524	1386.82724	-2072.99973	170.28492	1225.81299	-2151.93192	170.21221	1283.27744	-1916.19858	172.29048	1186.88469	-1866.62384	335.69363	1358.35449	-2018.34503	388.27618	1118.81241	-2049.82773	395.90073	1034.28505	-2022.17209	387.72083	962.61253	-2042.89963	329.81583	817.48131	-1965.85159	401.32797	817.01408	-1964.96582	378.09467	760.09094	-1920.20569	5.71666	1354.77402	-2007.2702	-42.93824	1146.31622	-2072.71149	-65.93505	1025.8345	-2024.7403	-68.18021	932.47879	-2014.82254	3.23302	811.36993	-1939.67804	-70.25474	798.94463	-1934.34219	-51.43318	762.76054	-1902.81998	296.11937	955.32455	-1952.76688	30.49768	957.28943	-1952.1106	243.98348	1016.84959	-2122.15836	78.78387	1032.201	-2125.28091	294.06908	656.12846	-2094.88876	293.9616	505.46932	-2041.3562	243.27145	308.86435	-2020.66727	270.63787	158.63832	-2091.10931	212.37549	109.52444	-2143.95981	247.95321	77.94632	-1959.53705	32.30618	670.89417	-2097.26517	46.17599	507.22706	-1986.76987	58.80177	334.07379	-2012.03018	52.65076	142.99777	-2080.22537	103.03338	97.01065	-2149.82224	85.74074	76.58783	-1946.75415
48	1.577	245.45965	1534.48196	-1825.03815	74.88514	1503.18237	-1818.19855	259.14898	1587.28653	-1938.57437	42.11815	1549.2746	-1903.62793	236.94273	1339.27094	-1962.55661	101.20564	1334.47174	-1961.9429	235.54501	1391.29608	-2081.38336	85.91365	1386.82205	-2071.60782	170.31355	1225.85732	-2150.71091	170.43234	1283.34808	-1915.21698	172.34091	1186.71448	-1865.39551	335.73803	1358.2695	-2017.09381	388.28186	1118.73497	-2048.7738	395.86952	1034.18732	-2021.24237	387.62104	962.54532	-2042.04285	329.60747	817.34932	-1965.09506	401.18053	816.78963	-1964.33899	377.96947	759.88022	-1919.69696	5.69885	1354.76669	-2005.94025	-43.02601	1146.32721	-2071.53442	-65.99131	1025.79117	-2023.48465	-68.42531	932.48077	-2013.78601	3.07125	811.46133	-1938.6998	-70.58508	798.79692	-1933.40683	-51.7752	762.71065	-1901.97357	296.04443	955.03471	-1951.96594	30.49134	957.11174	-1951.22864	244.05865	1016.82701	-2121.16959	78.82484	1032.30583	-2124.27322	294.02378	656.04172	-2094.13589	293.87012	505.38101	-2040.68832	243.08861	308.68763	-2020.23148	270.44416	158.52207	-2091.1557	212.25679	109.56521	-2143.89114	247.86945	77.96213	-1959.50821	32.29782	670.96565	-2096.68381	45.98336	507.13272	-1986.20468	58.6667	334.00185	-2011.74622	52.57857	143.02945	-2080.27359	102.9675	97.01165	-2149.85901	85.66799	76.58766	-1946.7659
49	1.61	245.69855	1534.32098	-1823.52692	74.77675	1503.24326	-1816.82938	259.35003	1587.10602	-1936.99173	42.35473	1549.13727	-1901.97281	237.16999	1339.18198	-1961.11542	101.35996	1334.3721	-1960.54092	235.69263	1391.2973	-2079.91302	86.03532	1386.79749	-2070.12283	170.47321	1225.95535	-2149.43604	170.51365	1283.0574	-1913.46039	172.55993	1186.4502	-1864.13361	335.96722	1358.16299	-2015.5127	388.27511	1118.657	-2047.59308	395.9021	1034.08653	-2020.22919	387.60925	962.47261	-2041.13434	329.50584	817.295	-1964.4162	401.09451	816.65016	-1963.6647	377.92023	759.74533	-1919.13742	5.87916	1354.65652	-2004.45114	-43.04295	1146.27991	-2070.15579	-66.15597	1025.82443	-2022.37061	-68.40926	932.31346	-2012.50778	2.81077	811.27373	-1937.64435	-70.76566	798.73154	-1932.39105	-52.0367	762.54112	-1900.98541	295.98093	954.67606	-1950.86395	30.78914	957.02881	-1950.00153	244.26167	1016.83273	-2120.08148	78.94639	1032.37595	-2123.12012	294.12643	655.92606	-2093.29987	293.84165	505.1886	-2039.8288	242.92635	308.53174	-2019.74777	270.37186	158.45853	-2090.59525	212.2049	109.60594	-2143.81226	247.79926	77.9951	-1959.49997	32.47272	670.99808	-2095.96161	45.91733	506.98906	-1985.57739	58.14016	333.89275	-2010.83893	52.54233	143.07381	-2080.22537	102.91393	97.0665	-2149.77859	85.61445	76.57132	-1946.75568
50	1.643	245.95247	1534.10233	-1821.77521	75.00111	1502.98843	-1815.20859	259.61597	1586.98959	-1935.23102	42.64812	1548.86719	-1900.29846	237.51854	1339.07196	-1959.50272	101.64624	1334.15894	-1958.8414	236.0655	1391.30798	-2078.29819	86.42263	1386.73126	-2068.48022	170.82783	1226.04736	-2147.98538	171.00773	1282.94724	-1912.29691	172.90487	1186.17195	-1862.80594	336.31271	1358.09387	-2013.98575	388.56392	1118.6673	-2046.46713	396.11877	1034.00864	-2019.13818	387.80167	962.43965	-2040.1738	329.55853	816.98547	-1963.81088	401.119	816.44836	-1962.86148	377.84744	759.5459	-1918.44269	6.22161	1354.54117	-2002.80289	-42.93678	1146.3131	-2068.70682	-65.98327	1025.72906	-2020.87799	-68.42326	932.27837	-2011.26511	2.62251	811.09406	-1936.54694	-71.00097	798.57841	-1931.17355	-52.26005	762.4054	-1899.83261	296.13483	954.31389	-1949.84604	30.97795	956.98418	-1948.63205	244.5282	1016.8512	-2118.94165	79.17778	1032.4733	-2121.83548	294.27023	655.79079	-2092.37305	293.93084	505.08678	-2038.95111	242.91197	308.35752	-2019.22653	270.2833	158.37326	-2090.60822	212.14216	109.64329	-2143.74222	247.73306	78.01147	-1959.47998	32.72177	671.04477	-2095.26382	45.82016	506.93233	-1985.18707	58.41516	333.8607	-2011.2146	52.46738	143.11151	-2080.27237	102.89814	97.17515	-2149.82422	85.57118	76.6079	-1946.76041
51	1.677	246.35607	1533.82813	-1819.89975	75.34437	1502.60788	-1813.46558	260.02615	1586.91864	-1933.34656	43.09092	1548.55301	-1898.47122	238.09713	1338.98422	-1957.8212	102.33023	1334.05609	-1957.18307	236.58129	1391.31943	-2076.59973	86.96284	1386.6864	-2066.7691	171.32568	1226.04103	-2146.39709	171.4786	1282.66678	-1910.68024	173.3848	1185.95062	-1861.28082	336.85192	1357.95868	-2012.27325	389.12487	1118.64998	-2045.00641	396.52435	1033.92349	-2017.87369	388.14911	962.38968	-2039.01001	329.60995	816.88126	-1962.72034	401.25969	816.29227	-1961.90292	377.91775	759.35776	-1917.58087	6.76756	1354.44397	-2001.10565	-42.40445	1146.35216	-2067.1463	-65.76499	1025.79536	-2019.50058	-68.22873	932.31239	-2009.87656	2.56185	810.70259	-1935.35324	-70.96047	798.46031	-1930.01053	-52.33422	762.24457	-1898.66547	296.76346	954.09081	-1948.48846	31.26812	956.76582	-1947.22076	244.96674	1016.80206	-2117.59506	79.67447	1032.52823	-2120.38635	294.58422	655.61836	-2091.25198	294.10149	504.9033	-2037.86606	242.79055	308.12138	-2018.55606	270.21534	158.24251	-2090.10391	212.07928	109.64293	-2143.59848	247.62156	78.04952	-1959.47861	33.10162	671.12419	-2094.38599	45.6071	506.80271	-1984.49081	58.16733	333.7973	-2010.83679	52.34965	143.23204	-2080.33112	102.80588	97.2267	-2149.84512	85.4292	76.58982	-1946.80145
